<?xml version="1.0" encoding="iso-8859-1"?>
<!-- Generator: Adobe Illustrator 19.0.0, SVG Export Plug-In . SVG Version: 6.00 Build 0)  -->
<svg version="1.1" id="Capa_1" xmlns="http://www.w3.org/2000/svg" xmlns:xlink="http://www.w3.org/1999/xlink" x="0px" y="0px"
	 viewBox="0 0 512 512" style="enable-background:new 0 0 512 512;" xml:space="preserve">
<circle style="fill:#B9EAFF;" cx="256" cy="256" r="256"/>
<path style="fill:#35CCFF;" d="M512,256c0-4.476-0.117-8.924-0.344-13.344L357,88L141,415l96.318,96.318
	C243.488,511.763,249.716,512,256,512C397.385,512,512,397.385,512,256z"/>
<rect x="155" y="88" style="fill:#FF6838;" width="202" height="327"/>
<rect x="256" y="88" style="fill:#AE4E32;" width="101" height="327"/>
<rect x="183.5" y="116" style="fill:#FFFFFF;" width="56" height="56"/>
<rect x="272.5" y="116" style="fill:#E0E0E0;" width="56" height="56"/>
<rect x="183.5" y="200" style="fill:#FFFFFF;" width="56" height="56"/>
<rect x="272.5" y="200" style="fill:#E0E0E0;" width="56" height="56"/>
<rect x="141" y="369.5" style="fill:#6EBA3B;" width="80.33" height="45.5"/>
<rect x="290.67" y="369.5" style="fill:#488057;" width="80.33" height="45.5"/>
<rect x="221.33" y="303.67" style="fill:#FFDC00;" width="69.33" height="111.33"/>
<rect x="256" y="303.67" style="fill:#FFC000;" width="34.667" height="111.33"/>
<g>
</g>
<g>
</g>
<g>
</g>
<g>
</g>
<g>
</g>
<g>
</g>
<g>
</g>
<g>
</g>
<g>
</g>
<g>
</g>
<g>
</g>
<g>
</g>
<g>
</g>
<g>
</g>
<g>
</g>
</svg>
