<?xml version="1.0" encoding="iso-8859-1"?>
<!-- Generator: Adobe Illustrator 19.0.0, SVG Export Plug-In . SVG Version: 6.00 Build 0)  -->
<svg version="1.1" id="Capa_1" xmlns="http://www.w3.org/2000/svg" xmlns:xlink="http://www.w3.org/1999/xlink" x="0px" y="0px"
	 viewBox="0 0 512 512" style="enable-background:new 0 0 512 512;" xml:space="preserve">
<circle style="fill:#F1333F;" cx="256" cy="256" r="256"/>
<g>
	<path style="fill:#AE283F;" d="M266.567,511.766c127.274-5.17,230.594-103.246,243.957-228.242L452,225l-13.242,1.896
		l-66.105-66.105l-0.84,17.959c-2.381-0.282-15.925,1.567-18.064,1.138l51.769,51.769l-22.914,3.282L242.341,94.677l-0.674,31.823
		l-31.323,0.178l116.278,116.278l-54.824,7.852L145.216,124.226L93,136.5v119.767L60,256l70.454,70.454l-26.527,12.652
		l35.785,35.784l-7.385,2.634L266.567,511.766z"/>
	<path style="fill:#AE283F;" d="M353.748,179.888l-0.095-0.096C353.385,179.792,353.448,179.828,353.748,179.888z"/>
</g>
<path style="fill:#B9EAFF;" d="M103.36,245.75h-20v-92.823c0-19.988,16.262-36.25,36.25-36.25h3.5
	c19.988,0,36.25,16.262,36.25,36.25h-20c0-8.96-7.29-16.25-16.25-16.25h-3.5c-8.96,0-16.25,7.29-16.25,16.25V245.75z"/>
<rect x="140.769" y="345.914" transform="matrix(-0.8675 -0.4975 0.4975 -0.8675 99.72 757.5936)" style="fill:#FFFFFF;" width="20.001" height="39.201"/>
<rect x="341.63" y="355.51" transform="matrix(-0.4975 -0.8675 0.8675 -0.4975 223.8667 860.7042)" style="fill:#E0E0E0;" width="39.201" height="20.001"/>
<g>
	<path style="fill:#FFFFFF;" d="M242.342,158.677c-1.814-19.52-12.48-30.186-31.999-31.999
		c19.519-1.814,30.185-12.481,31.997-32.001c1.814,19.52,12.48,30.186,31.999,31.999
		C254.821,128.49,244.155,139.157,242.342,158.677z"/>
	<path style="fill:#FFFFFF;" d="M372.653,198.793c-1.077-11.591-7.41-17.924-19-19.001c11.59-1.077,17.923-7.411,19-19.002
		c1.077,11.591,7.41,17.924,19,19.001C380.063,180.869,373.73,187.203,372.653,198.793z"/>
</g>
<path style="fill:#E0E0E0;" d="M354.817,362.5H157.183c-32.318,0-60.718-21.434-69.579-52.513L70.5,250h371l-17.104,59.987
	C415.534,341.066,387.135,362.5,354.817,362.5z"/>
<path style="fill:#C0C0C0;" d="M255.667,250v112.5h99.15c32.318,0,60.718-21.434,69.579-52.513L441.5,250H255.667z"/>
<rect x="60" y="225" style="fill:#FFFFFF;" width="392" height="31"/>
<rect x="255.67" y="225" style="fill:#E0E0E0;" width="196.33" height="31"/>
<g>
</g>
<g>
</g>
<g>
</g>
<g>
</g>
<g>
</g>
<g>
</g>
<g>
</g>
<g>
</g>
<g>
</g>
<g>
</g>
<g>
</g>
<g>
</g>
<g>
</g>
<g>
</g>
<g>
</g>
</svg>
